# xmcd CD database file
#
# Track frame offsets:
#	150
#	19607
#	38332
#	63755
#	81552
#	106552
#	128817
#	143082
#	164775
#	185700
#
# Disc length: 2865 seconds
#
# Revision: 8
# Processed by: cddbd v1.5.1PL2 Copyright (c) Steve Scherf et al.
# Submitted via: CDex 1.51
#
DISCID=7d0b2f0a
DTITLE=AEROSMITH - PUMP
DYEAR=1989
DGENRE=Hard Rock
TTITLE0=Young Lust
TTITLE1=F.I.N.E.
TTITLE2=Going Down/Love In An Elevator
TTITLE3=Monkey On My Back
TTITLE4=Water Song/Janie's Got A Gun
TTITLE5=Dulcimer Stomp/The Other Side
TTITLE6=My Girl
TTITLE7=Don't Get Mad, Get Even
TTITLE8=Hoodoo/Voodoo Medicine Man
TTITLE9=What It Takes
EXTD=KALODNER * JOHN KALODNER\n\n\n                  COLLINS MANAGEMENT, INC.\n\\ YEAR: 1989
EXTT0=
EXTT1=
EXTT2=
EXTT3=
EXTT4=
EXTT5=
EXTT6=
EXTT7=
EXTT8=
EXTT9=
PLAYORDER=
